# AST/ASF file generated using VICON BodyLanguage
# -----------------------------------------------
:version 1.10
:name VICON
:units
  mass 1.0
  length 0.45
  angle deg
:documentation
   .ast/.asf automatically generated from VICON data using
   VICON BodyBuilder and BodyLanguage model FoxedUp or BRILLIANT.MOD
:root
   order TX TY TZ RX RY RZ
   axis XYZ
   position 0 0 0  
   orientation 0 0 0 
:bonedata
  begin
     id 1 
     name lhipjoint
     direction 0.621036 -0.695554 0.361275 
     length 2.46325 
     axis 0 0 0  XYZ
  end
  begin
     id 2 
     name lfemur
     direction 0.34202 -0.939693 0  
     length 6.54784  
     axis 0 0 20  XYZ
    dof rx ry rz
    limits (-160.0 20.0)
           (-70.0 70.0)
           (-60.0 70.0)
  end
  begin
     id 3 
     name ltibia
     direction 0.34202 -0.939693 0   
     length 7.84737   
     axis 0 0 20   XYZ
    dof rx
    limits (-10.0 170.0)
  end
  begin
     id 4 
     name lfoot
     direction 0.0790693 -0.217241 0.97291   
     length 2.59747   
     axis -90 7.62852e-016 20   XYZ
    dof rx rz
    limits (-45.0 90.0)
           (-70.0 20.0)
  end
  begin
     id 5 
     name ltoes
     direction 1.53572e-011 -4.21898e-011 1   
     length 1.29919   
     axis -90 7.62852e-016 20   XYZ
    dof rx
    limits (-90.0 20.0)
  end
  begin
     id 6 
     name rhipjoint
     direction -0.602353 -0.708375 0.367935   
     length 2.41867  
     axis 0 0 0  XYZ 
  end
  begin
     id 7 
     name rfemur
     direction -0.34202 -0.939693 0   
     length 6.92065   
     axis 0 0 -20   XYZ
    dof rx ry rz
    limits (-160.0 20.0)
           (-70.0 70.0)
           (-70.0 60.0)
  end
  begin
     id 8 
     name rtibia
     direction -0.34202 -0.939693 0   
     length 7.88883   
     axis 0 0 -20   XYZ
    dof rx
    limits (-10.0 170.0)
 end
 begin
     id 9 
     name rfoot
     direction -0.0768692 -0.211196 0.974416   
     length 2.43714  
     axis -90 -7.62852e-016 -20   XYZ
    dof rx rz
    limits (-45.0 90.0)
           (-20.0 70.0)
  end
  begin
     id 10 
     name rtoes
     direction -1.53575e-011 -4.21933e-011 1   
     length 1.22113   
     axis -90 -7.62852e-016 -20   XYZ
    dof rx
    limits (-90.0 20.0)
  end
  begin
     id 11 
     name lowerback
     direction 0.0197937 0.98943 -0.143655   
     length 2.16931   
     axis 0 0 0   XYZ
    dof rx ry rz
    limits (-20.0 45.0)
           (-30.0 30.0)
           (-30.0 30.0)
  end
  begin
     id 12 
     name upperback
     direction -0.00183968 0.999975 0.00684288   
     length 2.17221   
     axis 0 0 0   XYZ
    dof rx ry rz
    limits (-20.0 45.0)
           (-30.0 30.0)
           (-30.0 30.0)
  end
  begin
     id 13 
     name thorax
     direction -0.00950244 0.997208 0.0740685   
     length 2.22549   
     axis 0 0 0   XYZ
    dof rx ry rz
    limits (-20.0 45.0)
           (-30.0 30.0)
           (-30.0 30.0)
  end
  begin
     id 14 
     name lowerneck
     direction 0.0218238 0.996215 0.0841425   
     length 1.77269   
     axis 0 0 0   XYZ
    dof rx ry rz
    limits (-20.0 45.0)
           (-30.0 30.0)
           (-30.0 30.0)
  end
  begin
     id 15 
     name upperneck
     direction -0.00430652 0.994214 -0.107332   
     length 1.76534   
     axis 0 0 0   XYZ
    dof rx ry rz
    limits (-20.0 45.0)
           (-30.0 30.0)
           (-30.0 30.0)
  end
  begin
     id 16
     name head
     direction -0.00328946 0.998959 -0.0454998  
     length 1.82634  
     axis 0 0 0   XYZ
    dof rx ry rz
    limits (-20.0 45.0)
           (-30.0 30.0)
           (-30.0 30.0)
  end
  begin
     id 17 
     name lclavicle
     direction 0.970962 0.239191 0.00450212  
     length 3.84872  
     axis 0 0 0   XYZ
    dof ry rz
    limits (-20.0 10.0)
           (0.0 20.0)
  end
  begin
     id 18 
     name lhumerus
     direction 1 -4.48966e-011 5.74696e-028   
     length 5.22771   
     axis 180 -30 -90   XYZ
    dof rx ry rz
    limits (-60.0 90.0)
           (-90.0 90.0)
           (-90.0 90.0)
  end
  begin
     id 19
     name lradius
     direction 1 -4.4896e-011 4.25109e-027   
     length 3.45251   
     axis 180 -30 -90   XYZ
    dof rx
    limits (-10.0 170.0)
  end
  begin
     id 20
     name lwrist
     direction 1 -4.48971e-011 1.15382e-027   
     length 1.72626   
     axis -5.52449e-016 90 90   XYZ
    dof ry
    limits (-180.0 0.0)
 end
  begin
     id 21 
     name lhand
     direction 1 -4.49034e-011 2.30765e-027   
     length 0.552119   
     axis -1.47248e-015 90 90   XYZ
    dof rx rz
    limits (-90.0 90.0)
           (-45.0 45.0)
  end
  begin
     id 22 
     name lfingers
     direction 1 -4.48951e-011 4.61529e-027   
     length 0.445133   
     axis -2.94495e-015 90 90   XYZ
    dof rx
    limits (0.0 90.0)
  end
  begin
     id 23
     name lthumb
     direction 0.707107 -6.34991e-011 0.707107   
     length 0.639124   
     axis -90 45 2.85299e-015   XYZ
    dof rx rz
    limits (-45.0 45.0)
           (-45.0 45.0)
  end
  begin
     id 24 
     name rclavicle
     direction -0.97424 0.222511 -0.0366699   
     length 3.73439  
     axis 0 0 0   XYZ 
    dof ry rz
    limits (-10.0 20.0)
           (-20.0 0.0)
  end
  begin
     id 25 
     name rhumerus
     direction -1 -4.48956e-011 -4.97258e-028  
     length 5.2398   
     axis 180 30 90   XYZ
    dof rx ry rz
    limits (-90.0 60.0)
           (-90.0 90.0)
           (-90.0 90.0)
  end
  begin
     id 26 
     name rradius
     direction -1 -4.4897e-011 -1.72611e-027   
     length 3.48042   
     axis 180 30 90   XYZ
    dof rx
    limits (-10.0 170.0)
  end
  begin
     id 27 
     name rwrist
     direction -1 -4.48976e-011 1.15382e-027   
     length 1.74021   
     axis -5.52449e-016 -90 -90   XYZ
    dof ry
    limits (-180.0 0.0)
  end
  begin
     id 28
     name rhand
     direction -1 -4.48963e-011 2.30765e-027   
     length 0.618713   
     axis -1.47248e-015 -90 -90   XYZ
    dof rx rz
    limits (-90.0 90.0)
           (-45.0 45.0)
  end
  begin
     id 29
     name rfingers
     direction -1 -4.4888e-011 4.61529e-027   
     length 0.498823   
     axis -2.94495e-015 -90 -90   XYZ
    dof rx
    limits (0.0 90.0)
  end
  begin
     id 30
     name rthumb
     direction -0.707107 -6.34968e-011 0.707107   
     length 0.716213   
     axis -90 -45 -2.85299e-015   XYZ
    dof rx rz
    limits (-45.0 45.0)
           (-45.0 45.0)
  end
:hierarchy
  begin
    root lhipjoint rhipjoint lowerback
    lhipjoint lfemur
    lfemur ltibia
    ltibia lfoot
    lfoot ltoes
    rhipjoint rfemur
    rfemur rtibia
    rtibia rfoot
    rfoot rtoes
    lowerback upperback
    upperback thorax
    thorax lowerneck lclavicle rclavicle
    lowerneck upperneck
    upperneck head
    lclavicle lhumerus
    lhumerus lradius
    lradius lwrist
    lwrist lhand lthumb
    lhand lfingers
    rclavicle rhumerus
    rhumerus rradius
    rradius rwrist
    rwrist rhand rthumb
    rhand rfingers
  end

#!OML:ASF G:\JayActor3\Patient Classification 1\Patient 1\Session 5\male.ASF
:FULLY-SPECIFIED
:DEGREES
37
root 50.5224 17.619 -4.22078 -118.764 85.8144 -117.999
lowerback -0.601875 -1.19839 4.50291
upperback 1.04662 -1.65102 0.278597
thorax 1.29415 -0.776548 -2.26284
lowerneck -8.24841 -0.286692 0.722278
upperneck 13.0001 -0.589046 1.37475
head 5.27171 -0.121381 0.272468
rclavicle -1.03057e-014 7.15625e-015
rhumerus -34.6337 -8.00487 -83.3747
rradius 27.1995
rwrist 3.6065
rhand -18.7669 -12.5393
rfingers 7.12502
rthumb 7.53017 -42.3852
lclavicle -1.03057e-014 7.15625e-015
lhumerus -33.9834 3.04026 83.8693
lradius 26.9636
lwrist 16.8541
lhand -15.6426 11.8005
lfingers 7.12502
lthumb 10.5449 41.516
rfemur -3.96789 -1.60493 22.2605
rtibia 29.1957
rfoot 1.71147 -14.8946
rtoes 2.32594
lfemur 3.18579 6.89914 -15.3308
ltibia 17.2231
lfoot 12.7783 -2.43498
ltoes -34.8021
38
root 50.5196 17.6186 -4.22112 -118.995 85.8061 -118.242
lowerback -0.58422 -1.20557 4.50164
upperback 1.04213 -1.65951 0.280574
thorax 1.2791 -0.78121 -2.25971
lowerneck -8.24238 -0.281647 0.732551
upperneck 12.9695 -0.584022 1.37762
head 5.26116 -0.11873 0.27199
rclavicle -1.90523e-014 3.18055e-015
rhumerus -34.6339 -8.00888 -83.3701
rradius 27.2151
rwrist 3.5949
rhand -18.7689 -12.6576
rfingers 7.12502
rthumb 7.52826 -42.5036
lclavicle -1.90523e-014 3.18055e-015
lhumerus -33.998 3.01882 83.8827
lradius 27.0005
lwrist 16.8787
lhand -15.649 11.7959
lfingers 7.12502
lthumb 10.5388 41.5117
rfemur -3.98617 -1.6383 22.2424
rtibia 29.1988
rfoot 1.74369 -14.8493
rtoes 2.25809
lfemur 3.17141 6.89669 -15.3374
ltibia 17.2123
lfoot 12.7335 -2.48372
ltoes -34.9095
39
root 50.5167 17.6178 -4.22178 -119.243 85.7965 -118.497
lowerback -0.562069 -1.2138 4.5046
upperback 1.0396 -1.66922 0.282024
thorax 1.26331 -0.786412 -2.25941
lowerneck -8.23798 -0.278496 0.738443
upperneck 12.9356 -0.581821 1.38633
head 5.24991 -0.117332 0.273847
rclavicle 9.64106e-015 3.77691e-015
rhumerus -34.6336 -8.01021 -83.3666
rradius 27.2353
rwrist 3.57819
rhand -18.7645 -12.7864
rfingers 7.12502
rthumb 7.53247 -42.6323
lclavicle 9.64106e-015 3.77691e-015
lhumerus -34.0096 3.00594 83.892
lradius 27.0288
lwrist 16.8955
lhand -15.6652 11.7998
lfingers 7.12502
lthumb 10.5231 41.5164
rfemur -3.9978 -1.68177 22.2187
rtibia 29.203
rfoot 1.7819 -14.7836
rtoes 2.19238
lfemur 3.16357 6.89011 -15.3474
ltibia 17.2035
lfoot 12.6737 -2.52663
ltoes -35.0411
40
root 50.5137 17.6166 -4.22263 -119.429 85.7818 -118.69
lowerback -0.538339 -1.22288 4.51615
upperback 1.03831 -1.68009 0.28459
thorax 1.24764 -0.792073 -2.26276
lowerneck -8.23487 -0.276715 0.742387
upperneck 12.8991 -0.582017 1.40071
head 5.23809 -0.116856 0.27762
rclavicle -5.64673e-015 -7.15625e-015
rhumerus -34.6312 -8.00758 -83.3666
rradius 27.2588
rwrist 3.56128
rhand -18.761 -12.9114
rfingers 7.12502
rthumb 7.53583 -42.7572
lclavicle -5.64673e-015 -7.15625e-015
lhumerus -34.0184 2.99965 83.8965
lradius 27.0494
lwrist 16.9055
lhand -15.6819 11.8097
lfingers 7.12502
lthumb 10.507 41.5271
rfemur -4.00752 -1.72502 22.1988
rtibia 29.2061
rfoot 1.82449 -14.7033
rtoes 2.12627
lfemur 3.15595 6.87496 -15.3554
ltibia 17.2007
lfoot 12.603 -2.54676
ltoes -35.1725
41
root 50.5106 17.6149 -4.22367 -119.553 85.7643 -118.82
lowerback -0.515109 -1.23066 4.5346
upperback 1.03808 -1.68934 0.288339
thorax 1.23331 -0.796805 -2.26875
lowerneck -8.23101 -0.277281 0.741096
upperneck 12.861 -0.585217 1.41924
head 5.22571 -0.117847 0.283332
rclavicle 1.80149e-016 -3.97569e-015
rhumerus -34.63 -7.99676 -83.3689
rradius 27.289
rwrist 3.53403
rhand -18.7571 -13.0405
rfingers 7.12502
rthumb 7.53956 -42.8861
lclavicle 1.80149e-016 -3.97569e-015
lhumerus -34.0239 2.99967 83.8983
lradius 27.0595
lwrist 16.906
lhand -15.6962 11.826
lfingers 7.12502
lthumb 10.4933 41.5441
rfemur -4.01439 -1.76701 22.1816
rtibia 29.2063
rfoot 1.86593 -14.6135
rtoes 2.10072
lfemur 3.14749 6.85166 -15.3634
ltibia 17.2063
lfoot 12.5206 -2.54308
ltoes -35.3078
42
root 50.5074 17.6132 -4.2247 -119.608 85.7447 -118.883
lowerback -0.494882 -1.23839 4.55588
upperback 1.04091 -1.69878 0.293723
thorax 1.22377 -0.801441 -2.27475
lowerneck -8.23548 -0.277747 0.738679
upperneck 12.8236 -0.588461 1.43869
head 5.21495 -0.118857 0.289499
rclavicle -9.8181e-015 6.75868e-015
rhumerus -34.6214 -7.97459 -83.3787
rradius 27.3228
rwrist 3.49472
rhand -18.7663 -13.1662
rfingers 7.12502
rthumb 7.53069 -43.0121
lclavicle -9.8181e-015 6.75868e-015
lhumerus -34.0193 3.01161 83.8947
lradius 27.056
lwrist 16.8968
lhand -15.7099 11.8356
lfingers 7.12502
lthumb 10.48 41.5544
rfemur -4.02163 -1.79804 22.1705
rtibia 29.202
rfoot 1.90173 -14.5237
rtoes 2.09074
lfemur 3.13176 6.82242 -15.3711
ltibia 17.2217
lfoot 12.4326 -2.51273
ltoes -35.4306
43
root 50.504 17.6113 -4.22559 -119.589 85.7268 -118.874
lowerback -0.478831 -1.24367 4.57576
upperback 1.04543 -1.70522 0.300596
thorax 1.2186 -0.804466 -2.27854
lowerneck -8.2383 -0.280184 0.733849
upperneck 12.7841 -0.593785 1.45651
head 5.20326 -0.121152 0.295409
rclavicle 2.26615e-014 -8.34896e-015
rhumerus -34.6094 -7.94568 -83.3903
rradius 27.3594
rwrist 3.45357
rhand -18.7833 -13.2784
rfingers 7.12502
rthumb 7.51428 -43.1249
lclavicle 2.26615e-014 -8.34896e-015
lhumerus -34.0093 3.02925 83.8906
lradius 27.0445
lwrist 16.8842
lhand -15.726 11.843
lfingers 7.12502
lthumb 10.4645 41.5626
rfemur -4.02943 -1.81744 22.1628
rtibia 29.1936
rfoot 1.92348 -14.4373
rtoes 2.14325
lfemur 3.10947 6.78843 -15.3805
ltibia 17.2451
lfoot 12.3422 -2.45719
ltoes -35.5413
44
root 50.5003 17.6097 -4.22625 -119.499 85.7091 -118.797
lowerback -0.464408 -1.24855 4.59372
upperback 1.05061 -1.71119 0.30935
thorax 1.21517 -0.807233 -2.27936
lowerneck -8.24299 -0.280537 0.729962
upperneck 12.7442 -0.596108 1.47172
head 5.19177 -0.122126 0.300557
rclavicle 4.88575e-015 -2.98177e-015
rhumerus -34.5931 -7.90953 -83.406
rradius 27.3978
rwrist 3.41356
rhand -18.8151 -13.3821
rfingers 7.12502
rthumb 7.48358 -43.2298
lclavicle 4.88575e-015 -2.98177e-015
lhumerus -33.9931 3.0574 83.8821
lradius 27.0233
lwrist 16.8634
lhand -15.7337 11.8472
lfingers 7.12502
lthumb 10.4571 41.5672
rfemur -4.04118 -1.82412 22.1622
rtibia 29.1824
rfoot 1.93128 -14.362
rtoes 2.21045
lfemur 3.07956 6.75457 -15.3878
ltibia 17.272
lfoot 12.2523 -2.38893
ltoes -35.6424
45
root 50.4965 17.6081 -4.22671 -119.376 85.6955 -118.688
lowerback -0.451959 -1.25164 4.60647
upperback 1.05673 -1.71487 0.318131
thorax 1.21412 -0.808841 -2.27728
lowerneck -8.24108 -0.281084 0.721172
upperneck 12.6981 -0.598088 1.48854
head 5.17723 -0.123162 0.307027
rclavicle 1.56294e-014 5.1684e-015
rhumerus -34.5725 -7.87373 -83.4222
rradius 27.4358
rwrist 3.3804
rhand -18.8522 -13.4863
rfingers 7.12502
rthumb 7.44783 -43.3351
lclavicle 1.56294e-014 5.1684e-015
lhumerus -33.9713 3.08903 83.8735
lradius 26.9949
lwrist 16.8421
lhand -15.7464 11.8542
lfingers 7.12502
lthumb 10.4448 41.5747
rfemur -4.05538 -1.82661 22.1615
rtibia 29.1717
rfoot 1.92658 -14.293
rtoes 2.28003
lfemur 3.04733 6.71877 -15.3976
ltibia 17.2965
lfoot 12.1661 -2.31559
ltoes -35.7405
46
root 50.4924 17.6067 -4.22688 -119.237 85.6878 -118.566
lowerback -0.439722 -1.25453 4.6097
upperback 1.06382 -1.71823 0.326422
thorax 1.21447 -0.810338 -2.27039
lowerneck -8.23586 -0.27959 0.717096
upperneck 12.6479 -0.597151 1.50003
head 5.16081 -0.122979 0.311265
rclavicle -8.60365e-016 -3.37934e-015
rhumerus -34.5486 -7.83326 -83.4426
rradius 27.4741
rwrist 3.34974
rhand -18.8977 -13.5885
rfingers 7.12502
rthumb 7.4039 -43.439
lclavicle -8.60365e-016 -3.37934e-015
lhumerus -33.9467 3.12003 83.864
lradius 26.9638
lwrist 16.8245
lhand -15.7589 11.8641
lfingers 7.12502
lthumb 10.4327 41.5853
rfemur -4.07303 -1.82237 22.1597
rtibia 29.1634
rfoot 1.91192 -14.2333
rtoes 2.33351
lfemur 3.01588 6.68131 -15.4101
ltibia 17.3157
lfoot 12.0842 -2.24519
ltoes -35.8403
47
root 50.4883 17.6053 -4.2269 -119.147 85.6877 -118.489
lowerback -0.424248 -1.2578 4.60147
upperback 1.07161 -1.72182 0.332375
thorax 1.21393 -0.812081 -2.25944
lowerneck -8.22815 -0.277283 0.715641
upperneck 12.5962 -0.59495 1.50816
head 5.14351 -0.122304 0.314112
rclavicle 1.34863e-014 -1.41137e-014
rhumerus -34.5198 -7.79568 -83.4645
rradius 27.5061
rwrist 3.32474
rhand -18.9486 -13.6881
rfingers 7.12502
rthumb 7.35477 -43.5403
lclavicle 1.34863e-014 -1.41137e-014
lhumerus -33.9214 3.14776 83.8545
lradius 26.9321
lwrist 16.8117
lhand -15.771 11.8839
lfingers 7.12502
lthumb 10.421 41.6057
rfemur -4.09168 -1.82196 22.1499
rtibia 29.1603
rfoot 1.89239 -14.1776
rtoes 2.3726
lfemur 2.99059 6.64556 -15.4278
ltibia 17.3261
lfoot 12.006 -2.19205
ltoes -35.9499
48
root 50.4839 17.6039 -4.22677 -119.04 85.6876 -118.394
lowerback -0.40301 -1.26355 4.59119
upperback 1.07965 -1.72838 0.337681
thorax 1.21024 -0.815393 -2.24788
lowerneck -8.22339 -0.273269 0.719393
upperneck 12.5485 -0.590796 1.5133
head 5.12792 -0.120565 0.315314
rclavicle 1.02188e-014 -3.18055e-015
rhumerus -34.4841 -7.75648 -83.492
rradius 27.528
rwrist 3.30689
rhand -19.0016 -13.7768
rfingers 7.12502
rthumb 7.30362 -43.6307
lclavicle 1.02188e-014 -3.18055e-015
lhumerus -33.8976 3.17601 83.8413
lradius 26.9005
lwrist 16.8022
lhand -15.7859 11.8969
lfingers 7.12502
lthumb 10.4067 41.6193
rfemur -4.11186 -1.82588 22.1423
rtibia 29.1626
rfoot 1.87304 -14.1273
rtoes 2.4008
lfemur 2.97234 6.61158 -15.4396
ltibia 17.3273
lfoot 11.9359 -2.15294
ltoes -36.0445
49
root 50.4795 17.6026 -4.22657 -118.933 85.6912 -118.298
lowerback -0.376989 -1.26913 4.57702
upperback 1.08654 -1.73437 0.341145
thorax 1.20278 -0.818562 -2.2359
lowerneck -8.21954 -0.269675 0.726062
upperneck 12.5074 -0.587233 1.51576
head 5.11453 -0.119046 0.315169
rclavicle -1.23992e-014 -2.78299e-015
rhumerus -34.4478 -7.72133 -83.5206
rradius 27.5459
rwrist 3.29232
rhand -19.0427 -13.8719
rfingers 7.12502
rthumb 7.26397 -43.7273
lclavicle -1.23992e-014 -2.78299e-015
lhumerus -33.8766 3.20436 83.8238
lradius 26.867
lwrist 16.7818
lhand -15.7805 11.9094
lfingers 7.12502
lthumb 10.4119 41.6316
rfemur -4.13479 -1.83727 22.1318
rtibia 29.17
rfoot 1.85874 -14.0824
rtoes 2.43013
lfemur 2.95973 6.58285 -15.4495
ltibia 17.3219
lfoot 11.8717 -2.13278
ltoes -36.1302
50
root 50.4748 17.6014 -4.22627 -118.776 85.6923 -118.149
lowerback -0.346391 -1.27643 4.56566
upperback 1.09412 -1.74245 0.344333
thorax 1.19322 -0.822777 -2.22568
lowerneck -8.22611 -0.264421 0.737392
upperneck 12.477 -0.581961 1.5158
head 5.10618 -0.116462 0.313631
rclavicle -1.45982e-015 4.96962e-015
rhumerus -34.4056 -7.68502 -83.5574
rradius 27.5627
rwrist 3.27794
rhand -19.0738 -14.0009
rfingers 7.12502
rthumb 7.23388 -43.8573
lclavicle -1.45982e-015 4.96962e-015
lhumerus -33.8538 3.23968 83.798
lradius 26.8283
lwrist 16.7488
lhand -15.7566 11.9097
lfingers 7.12502
lthumb 10.4349 41.6307
rfemur -4.16037 -1.85267 22.1273
rtibia 29.1805
rfoot 1.85461 -14.0432
rtoes 2.41942
lfemur 2.94975 6.55479 -15.4509
ltibia 17.314
lfoot 11.8119 -2.1303
ltoes -36.2213
51
root 50.47 17.6003 -4.22584 -118.543 85.6922 -117.924
lowerback -0.315198 -1.28166 4.55847
upperback 1.10241 -1.74778 0.347286
thorax 1.18415 -0.825543 -2.218
lowerneck -8.23599 -0.260112 0.750228
upperneck 12.4545 -0.578166 1.51545
head 5.10085 -0.114421 0.311631
rclavicle 1.12065e-014 2.78299e-015
rhumerus -34.3632 -7.65767 -83.5943
rradius 27.5821
rwrist 3.27386
rhand -19.0909 -14.1442
rfingers 7.12502
rthumb 7.21739 -44.0011
lclavicle 1.12065e-014 2.78299e-015
lhumerus -33.8296 3.27425 83.7697
lradius 26.7873
lwrist 16.7072
lhand -15.7259 11.904
lfingers 7.12502
lthumb 10.4646 41.6236
rfemur -4.1897 -1.86949 22.1288
rtibia 29.1932
rfoot 1.8584 -14.0084
rtoes 2.37146
lfemur 2.93854 6.52904 -15.4448
ltibia 17.3067
lfoot 11.7615 -2.13209
ltoes -36.2891
